<svg width="24" height="24" viewBox="0 0 24 24" fill="none" xmlns="http://www.w3.org/2000/svg">
<g clip-path="url(#clip0_782_93)">
<mask id="mask0_782_93" style="mask-type:alpha" maskUnits="userSpaceOnUse" x="0" y="1" width="24" height="24">
<rect y="1" width="24" height="24" fill="#D9D9D9"/>
</mask>
<g mask="url(#mask0_782_93)">
<path d="M19.6 21.2307L13.3 15.4154C12.8 15.7846 12.225 16.0769 11.575 16.2923C10.925 16.5077 10.2333 16.6154 9.5 16.6154C7.68333 16.6154 6.14583 16.0346 4.8875 14.873C3.62917 13.7115 3 12.2923 3 10.6154C3 8.93843 3.62917 7.5192 4.8875 6.35766C6.14583 5.19613 7.68333 4.61536 9.5 4.61536C11.3167 4.61536 12.8542 5.19613 14.1125 6.35766C15.3708 7.5192 16 8.93843 16 10.6154C16 11.2923 15.8833 11.9307 15.65 12.5307C15.4167 13.1307 15.1 13.6615 14.7 14.123L21 19.9384L19.6 21.2307ZM9.5 14.7692C10.75 14.7692 11.8125 14.3654 12.6875 13.5577C13.5625 12.75 14 11.7692 14 10.6154C14 9.46151 13.5625 8.48074 12.6875 7.67305C11.8125 6.86536 10.75 6.46151 9.5 6.46151C8.25 6.46151 7.1875 6.86536 6.3125 7.67305C5.4375 8.48074 5 9.46151 5 10.6154C5 11.7692 5.4375 12.75 6.3125 13.5577C7.1875 14.3654 8.25 14.7692 9.5 14.7692Z" fill="white"/>
</g>
</g>
<defs>
<clipPath id="clip0_782_93">
<rect width="24" height="24" fill="white"/>
</clipPath>
</defs>
</svg>
